<?xml version="1.0" standalone="no"?>
<!DOCTYPE svg PUBLIC "-//W3C//DTD SVG 20010904//EN"
 "http://www.w3.org/TR/2001/REC-SVG-20010904/DTD/svg10.dtd">
<svg version="1.0" xmlns="http://www.w3.org/2000/svg"
 width="400.000000pt" height="400.000000pt" viewBox="0 0 400.000000 400.000000"
 preserveAspectRatio="xMidYMid meet">

<g transform="translate(0.000000,400.000000) scale(0.100000,-0.100000)"
fill="#000000" stroke="none">
<path d="M1900 3350 l0 -50 -50 0 -50 0 0 -100 0 -100 -100 0 -100 0 0 -50 0
-50 -100 0 -100 0 0 -50 0 -50 -100 0 -100 0 0 50 0 50 -100 0 -100 0 0 -50 0
-50 -50 0 -50 0 0 -100 0 -100 50 0 50 0 0 -150 0 -150 -50 0 -50 0 0 -100 0
-100 -100 0 -100 0 0 -50 0 -50 -50 0 -50 0 0 -100 0 -100 50 0 50 0 0 -50 0
-50 100 0 100 0 0 -100 0 -100 50 0 50 0 0 -100 0 -100 50 0 50 0 0 -100 0
-100 -50 0 -50 0 0 -100 0 -100 50 0 50 0 0 -50 0 -50 100 0 100 0 0 50 0 50
150 0 150 0 0 -50 0 -50 100 0 100 0 0 -100 0 -100 50 0 50 0 0 -50 0 -50 100
0 100 0 0 50 0 50 50 0 50 0 0 100 0 100 100 0 100 0 0 50 0 50 150 0 150 0 0
-50 0 -50 100 0 100 0 0 50 0 50 50 0 50 0 0 100 0 100 -50 0 -50 0 0 100 0
100 50 0 50 0 0 100 0 100 50 0 50 0 0 100 0 100 100 0 100 0 0 50 0 50 50 0
50 0 0 100 0 100 -50 0 -50 0 0 50 0 50 -100 0 -100 0 0 100 0 100 -50 0 -50
0 0 150 0 150 50 0 50 0 0 100 0 100 -50 0 -50 0 0 50 0 50 -100 0 -100 0 0
-50 0 -50 -100 0 -100 0 0 50 0 50 -100 0 -100 0 0 50 0 50 -100 0 -100 0 0
100 0 100 -50 0 -50 0 0 50 0 50 -100 0 -100 0 0 -50z m100 -150 l0 -100 -50
0 -50 0 0 100 0 100 50 0 50 0 0 -100z m400 -250 l0 -50 100 0 100 0 0 -100 0
-100 50 0 50 0 0 -150 0 -150 50 0 50 0 0 -150 0 -150 -50 0 -50 0 0 -100 0
-100 50 0 50 0 0 -50 0 -50 -50 0 -50 0 0 50 0 50 -50 0 -50 0 0 -100 0 -100
50 0 50 0 0 -50 0 -50 -50 0 -50 0 0 50 0 50 -50 0 -50 0 0 -50 0 -50 -50 0
-50 0 0 -50 0 -50 50 0 50 0 0 -50 0 -50 -50 0 -50 0 0 50 0 50 -50 0 -50 0 0
50 0 50 50 0 50 0 0 50 0 50 50 0 50 0 0 50 0 50 -50 0 -50 0 0 100 0 100 -50
0 -50 0 0 50 0 50 -50 0 -50 0 0 50 0 50 -50 0 -50 0 0 -100 0 -100 -50 0 -50
0 0 -50 0 -50 -100 0 -100 0 0 -50 0 -50 50 0 50 0 0 -100 0 -100 100 0 100 0
0 -50 0 -50 50 0 50 0 0 -50 0 -50 -100 0 -100 0 0 50 0 50 -50 0 -50 0 0
-100 0 -100 -50 0 -50 0 0 100 0 100 -50 0 -50 0 0 -50 0 -50 -50 0 -50 0 0
-50 0 -50 -50 0 -50 0 0 50 0 50 50 0 50 0 0 50 0 50 -100 0 -100 0 0 -50 0
-50 -50 0 -50 0 0 50 0 50 -50 0 -50 0 0 50 0 50 -50 0 -50 0 0 100 0 100 -50
0 -50 0 0 300 0 300 50 0 50 0 0 100 0 100 50 0 50 0 0 50 0 50 50 0 50 0 0
50 0 50 50 0 50 0 0 50 0 50 100 0 100 0 0 50 0 50 400 0 400 0 0 -50z m-1200
-100 l0 -50 -50 0 -50 0 0 50 0 50 50 0 50 0 0 -50z m1700 0 l0 -50 -50 0 -50
0 0 50 0 50 50 0 50 0 0 -50z m-2000 -800 l0 -50 -100 0 -100 0 0 50 0 50 100
0 100 0 0 -50z m2400 0 l0 -50 -100 0 -100 0 0 50 0 50 100 0 100 0 0 -50z
m-2100 -900 l0 -50 -50 0 -50 0 0 50 0 50 50 0 50 0 0 -50z m1700 0 l0 -50
-50 0 -50 0 0 50 0 50 50 0 50 0 0 -50z m-800 -350 l0 -100 -50 0 -50 0 0 100
0 100 50 0 50 0 0 -100z"/>
<path d="M2400 2450 l0 -50 50 0 50 0 0 50 0 50 -50 0 -50 0 0 -50z"/>
<path d="M2600 2350 l0 -50 50 0 50 0 0 50 0 50 -50 0 -50 0 0 -50z"/>
<path d="M1800 2250 l0 -50 -50 0 -50 0 0 -150 0 -150 50 0 50 0 0 150 0 150
150 0 150 0 0 50 0 50 -150 0 -150 0 0 -50z"/>
<path d="M2600 2150 l0 -50 50 0 50 0 0 50 0 50 -50 0 -50 0 0 -50z"/>
<path d="M2400 2050 l0 -50 50 0 50 0 0 -50 0 -50 50 0 50 0 0 50 0 50 -50 0
-50 0 0 50 0 50 -50 0 -50 0 0 -50z"/>
<path d="M1500 1650 l0 -50 50 0 50 0 0 -50 0 -50 50 0 50 0 0 50 0 50 50 0
50 0 0 -50 0 -50 50 0 50 0 0 50 0 50 -50 0 -50 0 0 50 0 50 -50 0 -50 0 0
-50 0 -50 -50 0 -50 0 0 50 0 50 -50 0 -50 0 0 -50z"/>
<path d="M1300 1550 l0 -50 50 0 50 0 0 50 0 50 -50 0 -50 0 0 -50z"/>
</g>
</svg>
