<?xml version="1.0" standalone="no"?>
<!DOCTYPE svg PUBLIC "-//W3C//DTD SVG 20010904//EN"
 "http://www.w3.org/TR/2001/REC-SVG-20010904/DTD/svg10.dtd">
<svg version="1.0" xmlns="http://www.w3.org/2000/svg"
 width="800.000000pt" height="800.000000pt" viewBox="0 0 800.000000 800.000000"
 preserveAspectRatio="xMidYMid meet">

<g transform="translate(0.000000,800.000000) scale(0.100000,-0.100000)"
fill="#000000" stroke="none">
<path d="M3250 7000 l0 -250 750 0 750 0 0 250 0 250 -750 0 -750 0 0 -250z"/>
<path d="M5997 6501 l-177 -177 95 -97 c52 -53 95 -100 95 -104 0 -4 -57 -65
-127 -135 l-126 -126 -89 68 c-496 384 -1114 585 -1743 567 -497 -15 -935
-145 -1365 -405 -70 -42 -241 -162 -266 -186 -6 -6 -36 -31 -65 -56 -159 -131
-339 -328 -470 -510 -264 -370 -423 -778 -490 -1260 -20 -143 -18 -544 4 -695
100 -682 421 -1272 936 -1719 816 -709 1993 -866 2976 -397 287 137 516 301
756 540 157 158 238 257 353 431 500 756 595 1716 251 2545 -94 225 -201 413
-346 606 l-88 117 125 123 c69 68 129 125 133 127 5 2 53 -40 106 -92 l97 -95
180 178 179 178 -376 376 c-207 208 -377 377 -378 376 -1 0 -82 -80 -180 -178z
m-1662 -526 c640 -102 1187 -451 1541 -982 185 -278 311 -620 354 -962 78
-611 -95 -1218 -484 -1700 -60 -75 -212 -233 -276 -287 -332 -282 -729 -460
-1175 -526 -118 -17 -472 -17 -590 0 -255 38 -495 112 -709 219 -71 36 -141
73 -155 82 -14 10 -46 31 -71 47 -344 221 -640 563 -812 939 -395 861 -215
1869 452 2535 342 343 794 570 1260 634 63 9 129 18 145 20 66 9 425 -4 520
-19z"/>
<path d="M2743 4997 l-173 -173 470 -469 469 -470 -5 -100 c-5 -89 -3 -109 19
-177 31 -98 74 -165 146 -229 201 -179 487 -171 681 20 128 126 176 293 135
469 -22 93 -60 159 -134 233 -110 110 -243 158 -402 146 l-79 -6 -465 464
c-255 256 -470 465 -477 464 -7 0 -91 -78 -185 -172z"/>
</g>
</svg>
